<?xml version="1.0" encoding="utf-8"?>
<!-- Generator: Adobe Illustrator 24.3.0, SVG Export Plug-In . SVG Version: 6.00 Build 0)  -->
<svg version="1.1" id="Layer_1" xmlns="http://www.w3.org/2000/svg" xmlns:xlink="http://www.w3.org/1999/xlink" x="0px" y="0px"
	 viewBox="0 0 110.2 34.9" style="enable-background:new 0 0 110.2 34.9;" xml:space="preserve">
<style type="text/css">
	.st0{fill:#E10098;}
</style>
<g>
	<path class="st0" d="M42.5,10c-0.6,0-1.1,0.1-1.6,0.2c-0.5,0.1-0.9,0.4-1.2,0.7c-0.3,0.3-0.6,0.7-0.8,1.2c-0.2,0.5-0.3,1.1-0.3,1.8
		c0,1.1,0,2.3,0,3.4c0,0.7,0.1,1.3,0.3,1.8c0.2,0.5,0.5,0.9,0.8,1.3c0.3,0.3,0.7,0.6,1.2,0.7c0.5,0.1,1,0.2,1.6,0.2
		c0.6,0,1.1-0.1,1.6-0.2c0.5-0.2,0.9-0.4,1.2-0.7c0.4-0.3,0.6-0.7,0.8-1.3c0.2-0.5,0.3-1.1,0.3-1.8v-1h-3.3c-0.3,0-0.4-0.1-0.4-0.4
		v-0.3c0-0.3,0.1-0.4,0.4-0.4h4.1c0.3,0,0.4,0.1,0.4,0.4v1.7c0,0.8-0.1,1.5-0.3,2.1c-0.2,0.6-0.6,1.2-1,1.6c-0.4,0.5-1,0.8-1.6,1.1
		c-0.6,0.2-1.4,0.4-2.2,0.4c-0.8,0-1.5-0.1-2.2-0.4c-0.6-0.3-1.1-0.6-1.6-1c-0.4-0.4-0.7-1-1-1.6c-0.2-0.6-0.3-1.3-0.4-2.1
		c0-0.6,0-1.2,0-1.8c0-0.6,0-1.2,0-1.8c0-0.7,0.2-1.4,0.4-2c0.2-0.6,0.6-1.2,1-1.6c0.4-0.4,1-0.8,1.6-1c0.6-0.3,1.3-0.4,2.1-0.4
		c0.9,0,1.6,0.1,2.2,0.4c0.6,0.3,1.1,0.6,1.5,1c0.4,0.4,0.7,0.8,0.9,1.2c0.2,0.4,0.3,0.7,0.3,1c0,0.1,0,0.2-0.1,0.3
		c-0.1,0.1-0.2,0.1-0.3,0.1h-0.4c-0.1,0-0.2,0-0.2-0.1c0-0.1-0.1-0.2-0.2-0.3c-0.1-0.3-0.2-0.6-0.4-0.9c-0.2-0.3-0.4-0.5-0.7-0.8
		c-0.3-0.2-0.7-0.4-1.1-0.6C43.5,10.1,43,10,42.5,10L42.5,10z M51.4,13.8c0.5-0.9,1.3-1.3,2.6-1.3h0.7c0.3,0,0.4,0.1,0.4,0.4v0.3
		c0,0.3-0.1,0.4-0.4,0.4h-0.8c-0.8,0-1.4,0.2-1.8,0.7c-0.4,0.4-0.7,1-0.7,1.8V22c0,0.1,0,0.2-0.1,0.3c-0.1,0.1-0.2,0.1-0.3,0.1h-0.3
		c-0.3,0-0.4-0.1-0.4-0.4v-9c0-0.1,0-0.2,0.1-0.3c0.1-0.1,0.2-0.1,0.3-0.1H51c0.1,0,0.2,0,0.3,0.1c0.1,0.1,0.1,0.2,0.1,0.3
		L51.4,13.8L51.4,13.8z M63.2,22.4c-0.3,0-0.4-0.1-0.4-0.4v-0.9c-0.1,0.2-0.3,0.4-0.5,0.5c-0.2,0.2-0.4,0.3-0.7,0.5
		c-0.3,0.1-0.6,0.3-1,0.3c-0.4,0.1-0.8,0.2-1.3,0.2c-0.5,0-0.9-0.1-1.3-0.2c-0.4-0.2-0.8-0.4-1.1-0.6c-0.3-0.3-0.6-0.6-0.7-0.9
		c-0.2-0.3-0.3-0.7-0.3-1.1c0-0.4,0.1-0.8,0.3-1.2c0.2-0.3,0.4-0.6,0.8-0.9c0.3-0.3,0.7-0.5,1.2-0.6c0.5-0.2,1-0.3,1.5-0.4l3-0.4
		v-0.7c0-0.7-0.2-1.2-0.6-1.6c-0.4-0.4-1.1-0.6-2-0.6c-0.7,0-1.3,0.1-1.7,0.4c-0.4,0.3-0.6,0.6-0.7,0.9c0,0.2-0.1,0.3-0.2,0.3
		c-0.1,0-0.2,0.1-0.3,0.1h-0.3c-0.1,0-0.2,0-0.3-0.1c-0.1-0.1-0.1-0.2-0.1-0.3c0-0.2,0.1-0.4,0.2-0.7c0.1-0.3,0.3-0.5,0.6-0.8
		c0.3-0.3,0.7-0.5,1.1-0.6c0.4-0.2,1-0.3,1.6-0.3c0.7,0,1.4,0.1,1.8,0.3c0.5,0.2,0.9,0.5,1.2,0.8c0.3,0.3,0.5,0.7,0.6,1.1
		c0.1,0.4,0.2,0.8,0.2,1.2V22c0,0.3-0.1,0.4-0.4,0.4L63.2,22.4L63.2,22.4z M59.6,21.5c0.4,0,0.8-0.1,1.2-0.2c0.4-0.2,0.7-0.4,1-0.7
		c0.3-0.3,0.5-0.7,0.7-1.1c0.2-0.4,0.2-1,0.2-1.6v-0.6l-2.5,0.3c-2.1,0.3-3.2,1-3.2,2c0,0.3,0.1,0.6,0.2,0.8
		c0.2,0.2,0.3,0.4,0.6,0.6c0.2,0.2,0.5,0.3,0.8,0.3C59,21.4,59.3,21.5,59.6,21.5L59.6,21.5z M71.3,22.6c-0.8,0-1.4-0.1-2-0.4
		c-0.5-0.3-0.9-0.6-1.2-1.1v4.5c0,0.3-0.1,0.4-0.4,0.4h-0.3c-0.3,0-0.4-0.1-0.4-0.4V12.9c0-0.3,0.1-0.4,0.4-0.4h0.3
		c0.3,0,0.4,0.1,0.4,0.4v0.9c0.3-0.4,0.7-0.8,1.2-1.1c0.5-0.3,1.2-0.4,2-0.4c0.7,0,1.4,0.1,1.9,0.4c0.5,0.3,0.9,0.6,1.3,1
		c0.3,0.4,0.5,0.9,0.7,1.4c0.2,0.5,0.2,1.1,0.3,1.6c0,0.2,0,0.4,0,0.6c0,0.2,0,0.4,0,0.6c0,0.6-0.1,1.1-0.3,1.7
		c-0.1,0.5-0.4,1-0.7,1.4c-0.3,0.4-0.7,0.8-1.3,1C72.6,22.5,72,22.6,71.3,22.6L71.3,22.6z M68.1,16.8c0,0.2,0,0.4,0,0.7
		c0,0.3,0,0.6,0,0.7c0,0.4,0.1,0.8,0.2,1.2c0.1,0.4,0.3,0.7,0.6,1c0.3,0.3,0.6,0.6,1,0.8c0.4,0.2,0.8,0.3,1.4,0.3
		c0.6,0,1-0.1,1.4-0.3c0.4-0.2,0.7-0.4,0.9-0.8c0.2-0.3,0.4-0.7,0.5-1.1c0.1-0.4,0.2-0.9,0.2-1.3c0-0.4,0-0.7,0-1.1
		c0-0.5-0.1-0.9-0.2-1.3c-0.1-0.4-0.3-0.8-0.5-1.1c-0.2-0.3-0.5-0.6-0.9-0.8c-0.4-0.2-0.8-0.3-1.4-0.3c-0.5,0-1,0.1-1.4,0.3
		c-0.4,0.2-0.7,0.5-1,0.8c-0.2,0.3-0.4,0.7-0.6,1.1C68.2,16,68.1,16.4,68.1,16.8L68.1,16.8z M79.1,13.8c0.3-0.4,0.8-0.8,1.2-1.1
		c0.5-0.3,1.1-0.4,2-0.4c0.6,0,1.2,0.1,1.7,0.3c0.5,0.2,0.9,0.5,1.2,0.9c0.3,0.4,0.6,0.8,0.7,1.3c0.2,0.5,0.2,1.1,0.2,1.7V22
		c0,0.3-0.1,0.4-0.4,0.4h-0.3c-0.3,0-0.4-0.1-0.4-0.4v-5.3c0-1-0.2-1.8-0.7-2.4c-0.5-0.6-1.2-0.9-2.2-0.9c-0.9,0-1.6,0.3-2.2,0.9
		c-0.5,0.6-0.8,1.4-0.8,2.4V22c0,0.3-0.1,0.4-0.4,0.4h-0.3c-0.3,0-0.4-0.1-0.4-0.4V9.3c0-0.3,0.1-0.4,0.4-0.4h0.3
		c0.3,0,0.4,0.1,0.4,0.4L79.1,13.8L79.1,13.8z M93.9,8.9c0.7,0,1.4,0.1,2,0.3s1.1,0.5,1.6,1c0.4,0.4,0.8,1,1,1.6
		c0.3,0.6,0.4,1.4,0.4,2.3c0,0.6,0,1.1,0,1.6c0,0.5,0,1,0,1.6c-0.1,1.8-0.5,3.1-1.4,4l1.2,1.7c0,0,0,0.1,0,0.1c0,0,0,0.1,0,0.1
		c0,0.1,0,0.2-0.1,0.3c-0.1,0.1-0.2,0.1-0.3,0.1H98c-0.1,0-0.3-0.1-0.4-0.2c-0.1-0.1-0.2-0.2-0.2-0.3L96.6,22
		c-0.8,0.4-1.6,0.6-2.7,0.6c-1.6,0-2.8-0.4-3.7-1.3c-0.8-0.8-1.3-2.2-1.3-4c0-0.6,0-1.1,0-1.6c0-0.5,0-1,0-1.6
		c0-0.9,0.2-1.7,0.4-2.3c0.3-0.7,0.6-1.2,1-1.6c0.4-0.4,1-0.8,1.6-1C92.5,9,93.2,8.9,93.9,8.9L93.9,8.9z M93.9,10
		c-0.5,0-1,0.1-1.5,0.2c-0.5,0.2-0.9,0.4-1.2,0.7c-0.3,0.3-0.6,0.8-0.8,1.3c-0.2,0.5-0.3,1.2-0.3,1.9c0,0.3,0,0.6,0,0.8
		c0,0.2,0,0.5,0,0.7c0,0.2,0,0.5,0,0.7c0,0.2,0,0.5,0,0.8c0,0.7,0.1,1.4,0.3,1.9c0.2,0.5,0.5,0.9,0.8,1.3c0.3,0.3,0.7,0.6,1.2,0.8
		c0.5,0.2,1,0.2,1.5,0.2c0.5,0,1-0.1,1.5-0.2c0.5-0.2,0.8-0.4,1.2-0.8c0.3-0.3,0.6-0.8,0.8-1.3c0.2-0.5,0.3-1.2,0.3-1.9
		c0-0.3,0-0.5,0-0.8c0-0.3,0-0.5,0-0.7c0-0.2,0-0.5,0-0.7c0-0.2,0-0.5,0-0.8c0-0.7-0.1-1.4-0.3-1.9c-0.2-0.5-0.5-1-0.8-1.3
		c-0.3-0.3-0.7-0.6-1.2-0.7C94.9,10.1,94.4,10,93.9,10L93.9,10z M103.2,21.2h6.6c0.3,0,0.4,0.1,0.4,0.4V22c0,0.3-0.1,0.4-0.4,0.4
		h-7.3c-0.3,0-0.4-0.1-0.4-0.4V9.5c0-0.3,0.1-0.4,0.4-0.4h0.4c0.3,0,0.4,0.1,0.4,0.4L103.2,21.2L103.2,21.2z M2.8,26.6l-1.3-0.7
		L15.8,1.1l1.3,0.7L2.8,26.6z"/>
	<path class="st0" d="M1.3,23.9h28.5v1.5H1.3V23.9z"/>
	<path class="st0" d="M16.1,32.9L1.8,24.7l0.7-1.3l14.3,8.2L16.1,32.9z M28.5,11.5L14.2,3.2L15,1.9l14.3,8.2L28.5,11.5z"/>
	<path class="st0" d="M2.6,11.5l-0.7-1.3l14.3-8.2l0.7,1.3L2.6,11.5z"/>
	<path class="st0" d="M28.2,26.6L14,1.9l1.3-0.7l14.3,24.7L28.2,26.6z M2.4,9.2h1.5v16.5H2.4V9.2z M27.2,9.2h1.5v16.5h-1.5L27.2,9.2
		z"/>
	<path class="st0" d="M15.8,32.3l-0.6-1.1L27.6,24l0.6,1.1L15.8,32.3z"/>
	<path class="st0" d="M30.6,26.2c-0.9,1.5-2.8,2-4.3,1.1c-1.5-0.9-2-2.8-1.1-4.3c0.9-1.5,2.8-2,4.3-1.1C31,22.8,31.5,24.7,30.6,26.2
		 M5.8,11.8c-0.9,1.5-2.8,2-4.3,1.1c-1.5-0.9-2-2.8-1.1-4.3c0.9-1.5,2.8-2,4.3-1.1C6.2,8.4,6.7,10.4,5.8,11.8 M0.4,26.2
		c-0.9-1.5-0.3-3.4,1.1-4.3c1.5-0.9,3.4-0.3,4.3,1.1c0.9,1.5,0.3,3.4-1.1,4.3C3.2,28.2,1.3,27.7,0.4,26.2 M25.3,11.8
		c-0.9-1.5-0.3-3.4,1.1-4.3c1.5-0.9,3.4-0.3,4.3,1.1c0.9,1.5,0.3,3.4-1.1,4.3C28,13.8,26.1,13.3,25.3,11.8 M15.5,34.9
		c-1.7,0-3.1-1.4-3.1-3.1c0-1.7,1.4-3.1,3.1-3.1s3.1,1.4,3.1,3.1C18.6,33.5,17.2,34.9,15.5,34.9 M15.5,6.2c-1.7,0-3.1-1.4-3.1-3.1
		S13.8,0,15.5,0s3.1,1.4,3.1,3.1C18.6,4.8,17.3,6.2,15.5,6.2C15.5,6.2,15.5,6.2,15.5,6.2"/>
</g>
</svg>
